<?xml version="1.0" encoding="UTF-8" standalone="no"?>
<!DOCTYPE svg PUBLIC "-//W3C//DTD SVG 1.1//EN" "http://www.w3.org/Graphics/SVG/1.1/DTD/svg11.dtd">
<svg version="1.1" xmlns="http://www.w3.org/2000/svg" xmlns:xlink="http://www.w3.org/1999/xlink" preserveAspectRatio="xMidYMid meet" viewBox="0 0 544 306" width="544" height="306"><defs><path d="M0 0L544 0L544 306L0 306L0 0Z" id="dkpwxn14"></path><path d="M172 253L172 53L372 53L372 253L172 253ZM197 228L234.5 190.5L259.5 203L297 153L347 219.67L347 78L197 78L197 228ZM242.55 106.2L243.43 106.29L244.3 106.41L245.16 106.57L246.01 106.76L246.84 106.99L247.67 107.24L248.47 107.53L249.27 107.85L250.04 108.19L250.8 108.57L251.55 108.97L252.27 109.4L252.98 109.86L253.67 110.35L254.34 110.86L254.99 111.39L255.61 111.95L256.22 112.53L256.8 113.14L257.36 113.77L257.9 114.41L258.41 115.08L258.89 115.77L259.35 116.48L259.78 117.21L260.19 117.95L260.56 118.71L260.91 119.49L261.22 120.28L261.51 121.09L261.77 121.91L261.99 122.74L262.18 123.59L262.34 124.45L262.46 125.33L262.55 126.21L262.61 127.1L262.63 128L262.61 128.9L262.55 129.8L262.46 130.68L262.34 131.55L262.18 132.41L261.99 133.26L261.77 134.09L261.51 134.92L261.22 135.72L260.91 136.52L260.56 137.29L260.19 138.05L259.78 138.8L259.35 139.52L258.89 140.23L258.41 140.92L257.9 141.59L257.36 142.24L256.8 142.86L256.22 143.47L255.61 144.05L254.99 144.61L254.34 145.15L253.67 145.66L252.98 146.14L252.27 146.6L251.55 147.03L250.8 147.44L250.04 147.81L249.27 148.16L248.47 148.47L247.67 148.76L246.84 149.02L246.01 149.24L245.16 149.43L244.3 149.59L243.43 149.71L242.55 149.8L241.65 149.86L240.75 149.88L239.85 149.86L238.96 149.8L238.08 149.71L237.2 149.59L236.34 149.43L235.49 149.24L234.66 149.02L233.84 148.76L233.03 148.47L232.24 148.16L231.46 147.81L230.7 147.44L229.96 147.03L229.23 146.6L228.52 146.14L227.83 145.66L227.16 145.15L226.52 144.61L225.89 144.05L225.28 143.47L224.7 142.86L224.14 142.24L223.61 141.59L223.1 140.92L222.61 140.23L222.15 139.52L221.72 138.8L221.32 138.05L220.94 137.29L220.6 136.52L220.28 135.72L219.99 134.92L219.74 134.09L219.51 133.26L219.32 132.41L219.16 131.55L219.04 130.68L218.95 129.8L218.9 128.9L218.88 128L218.9 127.1L218.95 126.21L219.04 125.33L219.16 124.45L219.32 123.59L219.51 122.74L219.74 121.91L219.99 121.09L220.28 120.28L220.6 119.49L220.94 118.71L221.32 117.95L221.72 117.21L222.15 116.48L222.61 115.77L223.1 115.08L223.61 114.41L224.14 113.77L224.7 113.14L225.28 112.53L225.89 111.95L226.52 111.39L227.16 110.86L227.83 110.35L228.52 109.86L229.23 109.4L229.96 108.97L230.7 108.57L231.46 108.19L232.24 107.85L233.03 107.53L233.84 107.24L234.66 106.99L235.49 106.76L236.34 106.57L237.2 106.41L238.08 106.29L238.96 106.2L239.85 106.15L240.75 106.13L241.65 106.15L242.55 106.2Z" id="eiFKoNLA1"></path></defs><g><g><g><use xlink:href="#dkpwxn14" opacity="1" fill="#eeeeee" fill-opacity="1"></use></g><g><use xlink:href="#eiFKoNLA1" opacity="1" fill="#d5502a" fill-opacity="1"></use></g></g></g></svg>
